<svg width="390" height="844" viewBox="0 0 390 844" fill="none" xmlns="http://www.w3.org/2000/svg">
  <defs>
    <linearGradient id="bg" x1="0" y1="0" x2="390" y2="844" gradientUnits="userSpaceOnUse">
      <stop stop-color="#FFF8F1"/>
      <stop offset="0.5" stop-color="#FDF6FA"/>
      <stop offset="1" stop-color="#F2FAF9"/>
    </linearGradient>
    <linearGradient id="chest" x1="78" y1="157" x2="312" y2="345" gradientUnits="userSpaceOnUse">
      <stop stop-color="#F6C84C"/>
      <stop offset="0.42" stop-color="#E8823C"/>
      <stop offset="1" stop-color="#E86A92"/>
    </linearGradient>
    <linearGradient id="slot" x1="0" y1="0" x2="1" y2="1">
      <stop stop-color="#FFFFFF"/>
      <stop offset="1" stop-color="#FBE7EF"/>
    </linearGradient>
    <filter id="shadow" x="-20%" y="-20%" width="140%" height="140%" color-interpolation-filters="sRGB">
      <feDropShadow dx="0" dy="14" stdDeviation="18" flood-color="#927A67" flood-opacity="0.2"/>
    </filter>
    <filter id="softShadow" x="-20%" y="-20%" width="140%" height="140%" color-interpolation-filters="sRGB">
      <feDropShadow dx="0" dy="8" stdDeviation="10" flood-color="#8B7681" flood-opacity="0.14"/>
    </filter>
    <style>
      .screen { font-family: -apple-system, BlinkMacSystemFont, "PingFang SC", "Noto Sans CJK SC", sans-serif; }
      .title { font-size: 28px; font-weight: 800; fill: #2A1B24; }
      .section { font-size: 17px; font-weight: 800; fill: #2A1B24; }
      .body { font-size: 14px; font-weight: 600; fill: #5A4650; }
      .small { font-size: 12px; font-weight: 600; fill: #8B7681; }
      .tiny { font-size: 10px; font-weight: 800; fill: #8B7681; }
      .primary { fill: #C24A73; }
      .partner { fill: #6A57BF; }
    </style>
  </defs>

  <rect width="390" height="844" fill="url(#bg)"/>
  <g class="screen">
    <rect x="14" y="12" width="362" height="820" rx="32" fill="#FFFFFF" stroke="#F0E2EA"/>
    <rect x="34" y="28" width="64" height="6" rx="3" fill="#2A1B24" opacity="0.1"/>
    <text x="34" y="72" class="small">道具背包</text>
    <text x="34" y="107" class="title">今天带哪件？</text>
    <text x="34" y="132" class="body">用道具改变今天的打卡收益和挑战结果</text>

    <g filter="url(#shadow)">
      <rect x="34" y="153" width="322" height="226" rx="24" fill="#2A1B24"/>
      <circle cx="302" cy="197" r="44" fill="#F6C84C" opacity="0.22"/>
      <circle cx="91" cy="328" r="58" fill="#8B7BD8" opacity="0.16"/>
      <g transform="translate(76 179)">
        <path d="M28 68C28 42 49 22 75 22H161C187 22 208 42 208 68V134H28V68Z" fill="url(#chest)"/>
        <rect x="16" y="83" width="224" height="108" rx="24" fill="#E86A92"/>
        <rect x="16" y="83" width="224" height="28" rx="14" fill="#F6C84C"/>
        <rect x="103" y="104" width="50" height="54" rx="14" fill="#FFFFFF"/>
        <circle cx="128" cy="129" r="8" fill="#C56521"/>
        <path d="M46 83V191M210 83V191" stroke="#C24A73" stroke-width="8" opacity="0.5"/>
      </g>
      <text x="58" y="346" font-size="13" font-weight="800" fill="#FFFFFF">已装备：加速券 · 下一次打卡行动力 +2</text>
    </g>

    <g filter="url(#softShadow)">
      <rect x="34" y="397" width="322" height="90" rx="18" fill="#FFFFFF" stroke="#F0E2EA"/>
      <text x="54" y="428" class="section">快捷装备</text>
      <text x="54" y="454" class="small">每次最多带 1 件，避免规则太复杂</text>
      <rect x="243" y="417" width="82" height="40" rx="14" fill="#FCE7D2"/>
      <text x="260" y="442" font-size="15" font-weight="900" fill="#C56521">3 件可用</text>
    </g>

    <g filter="url(#softShadow)">
      <rect x="34" y="505" width="322" height="190" rx="18" fill="#FFFFFF" stroke="#F0E2EA"/>
      <text x="54" y="537" class="section">我的道具</text>
      <g transform="translate(54 559)">
        <rect width="82" height="106" rx="16" fill="url(#slot)" stroke="#F0E2EA"/>
        <circle cx="41" cy="33" r="20" fill="#F6C84C"/>
        <path d="M32 34H50M42 24L33 44H51L42 24Z" stroke="#FFFFFF" stroke-width="3" stroke-linecap="round" stroke-linejoin="round"/>
        <text x="18" y="72" font-size="12" font-weight="900" fill="#2A1B24">加速券</text>
        <text x="22" y="91" class="tiny">x2</text>
      </g>
      <g transform="translate(154 559)">
        <rect width="82" height="106" rx="16" fill="url(#slot)" stroke="#F0E2EA"/>
        <circle cx="41" cy="33" r="20" fill="#8B7BD8"/>
        <path d="M28 28C38 20 50 20 54 32C58 45 45 51 41 55C37 51 24 45 28 28Z" fill="#FFFFFF"/>
        <text x="18" y="72" font-size="12" font-weight="900" fill="#2A1B24">护盾</text>
        <text x="22" y="91" class="tiny">x1</text>
      </g>
      <g transform="translate(254 559)">
        <rect width="82" height="106" rx="16" fill="url(#slot)" stroke="#F0E2EA"/>
        <circle cx="41" cy="33" r="20" fill="#E86A92"/>
        <circle cx="34" cy="33" r="6" fill="#FFFFFF"/>
        <circle cx="48" cy="33" r="6" fill="#FFFFFF"/>
        <path d="M31 47C39 53 48 53 54 47" stroke="#FFFFFF" stroke-width="3" stroke-linecap="round"/>
        <text x="18" y="72" font-size="12" font-weight="900" fill="#2A1B24">合击券</text>
        <text x="22" y="91" class="tiny">x1</text>
      </g>
    </g>

    <g filter="url(#softShadow)">
      <rect x="34" y="711" width="322" height="62" rx="18" fill="#E86A92"/>
      <text x="58" y="738" font-size="14" font-weight="800" fill="#FFFFFF">今日推荐</text>
      <text x="58" y="759" font-size="12" font-weight="700" fill="#FFFFFF" opacity="0.82">装备加速券：打完「阅读」就能到达下一站</text>
      <circle cx="316" cy="742" r="18" fill="#FFFFFF" opacity="0.2"/>
      <path d="M309 742H323M317 735L323 742L317 749" stroke="#FFFFFF" stroke-width="3" stroke-linecap="round" stroke-linejoin="round"/>
    </g>

    <g transform="translate(60 797)">
      <circle cx="0" cy="0" r="4" fill="#B7A6B0"/>
      <circle cx="72" cy="0" r="4" fill="#B7A6B0"/>
      <circle cx="144" cy="0" r="4" fill="#E86A92"/>
      <circle cx="216" cy="0" r="4" fill="#B7A6B0"/>
      <circle cx="288" cy="0" r="4" fill="#B7A6B0"/>
    </g>
  </g>
</svg>
