<svg width="390" height="844" viewBox="0 0 390 844" fill="none" xmlns="http://www.w3.org/2000/svg">
  <defs>
    <linearGradient id="bg" x1="0" y1="0" x2="390" y2="844" gradientUnits="userSpaceOnUse">
      <stop stop-color="#F2FAF9"/>
      <stop offset="0.52" stop-color="#FDF6FA"/>
      <stop offset="1" stop-color="#FFF8F1"/>
    </linearGradient>
    <linearGradient id="sky" x1="34" y1="141" x2="356" y2="446" gradientUnits="userSpaceOnUse">
      <stop stop-color="#DBF0ED"/>
      <stop offset="0.55" stop-color="#EDE8FA"/>
      <stop offset="1" stop-color="#FCE7D2"/>
    </linearGradient>
    <linearGradient id="route" x1="92" y1="388" x2="298" y2="210" gradientUnits="userSpaceOnUse">
      <stop stop-color="#E86A92"/>
      <stop offset="0.55" stop-color="#F6C84C"/>
      <stop offset="1" stop-color="#8B7BD8"/>
    </linearGradient>
    <filter id="shadow" x="-20%" y="-20%" width="140%" height="140%" color-interpolation-filters="sRGB">
      <feDropShadow dx="0" dy="14" stdDeviation="18" flood-color="#6E8683" flood-opacity="0.2"/>
    </filter>
    <filter id="softShadow" x="-20%" y="-20%" width="140%" height="140%" color-interpolation-filters="sRGB">
      <feDropShadow dx="0" dy="8" stdDeviation="10" flood-color="#8B7681" flood-opacity="0.14"/>
    </filter>
    <style>
      .screen { font-family: -apple-system, BlinkMacSystemFont, "PingFang SC", "Noto Sans CJK SC", sans-serif; }
      .title { font-size: 28px; font-weight: 800; fill: #2A1B24; }
      .section { font-size: 17px; font-weight: 800; fill: #2A1B24; }
      .body { font-size: 14px; font-weight: 600; fill: #5A4650; }
      .small { font-size: 12px; font-weight: 600; fill: #8B7681; }
      .tiny { font-size: 10px; font-weight: 800; fill: #8B7681; }
      .primary { fill: #C24A73; }
      .partner { fill: #6A57BF; }
    </style>
  </defs>

  <rect width="390" height="844" fill="url(#bg)"/>
  <g class="screen">
    <rect x="14" y="12" width="362" height="820" rx="32" fill="#FFFFFF" stroke="#F0E2EA"/>
    <rect x="34" y="28" width="64" height="6" rx="3" fill="#2A1B24" opacity="0.1"/>
    <text x="34" y="72" class="small">双人冒险</text>
    <text x="34" y="107" class="title">去月光灯塔</text>
    <text x="34" y="132" class="body">今天还差 2 点行动力到下一站</text>

    <g filter="url(#shadow)">
      <rect x="34" y="153" width="322" height="292" rx="24" fill="url(#sky)"/>
      <circle cx="302" cy="206" r="34" fill="#FFFFFF" opacity="0.72"/>
      <path d="M34 385C91 340 126 354 162 378C203 406 253 382 356 328V445H34V385Z" fill="#FFFFFF" opacity="0.72"/>
      <path d="M34 404C90 355 130 368 171 390C215 414 266 395 356 343V445H34V404Z" fill="#DDF1E8"/>
      <path d="M82 379C112 335 158 329 195 302C237 272 236 229 301 209" stroke="url(#route)" stroke-width="16" stroke-linecap="round" stroke-dasharray="2 28"/>

      <g transform="translate(76 356)">
        <circle cx="0" cy="0" r="18" fill="#E86A92"/>
        <text x="-6" y="5" font-size="15" font-weight="900" fill="#FFFFFF">起</text>
      </g>
      <g transform="translate(152 332)">
        <circle cx="0" cy="0" r="15" fill="#FFFFFF" stroke="#E86A92" stroke-width="5"/>
      </g>
      <g transform="translate(213 286)">
        <circle cx="0" cy="0" r="16" fill="#F6C84C"/>
        <path d="M-7 0H7M0 -7V7" stroke="#FFFFFF" stroke-width="3" stroke-linecap="round"/>
      </g>
      <g transform="translate(300 210)">
        <circle cx="0" cy="0" r="22" fill="#8B7BD8"/>
        <path d="M-7 8L0 -10L7 8H-7Z" fill="#FFFFFF"/>
      </g>

      <g transform="translate(126 382)">
        <circle cx="0" cy="0" r="18" fill="#FFFFFF"/>
        <circle cx="-6" cy="-1" r="5" fill="#E86A92"/>
        <circle cx="7" cy="-1" r="5" fill="#8B7BD8"/>
        <path d="M-8 9C-2 13 5 13 10 9" stroke="#2A1B24" stroke-width="3" stroke-linecap="round"/>
      </g>
    </g>

    <g filter="url(#softShadow)">
      <rect x="34" y="463" width="322" height="90" rx="18" fill="#FFFFFF" stroke="#F0E2EA"/>
      <text x="54" y="494" class="section">今日行动力</text>
      <text x="54" y="519" class="small">完成任意打卡 +1，全勤额外 +1</text>
      <g transform="translate(235 486)">
        <rect width="92" height="36" rx="14" fill="#FBE7EF"/>
        <text x="16" y="24" font-size="16" font-weight="900" fill="#C24A73">4 / 6 点</text>
      </g>
    </g>

    <g filter="url(#softShadow)">
      <rect x="34" y="571" width="322" height="116" rx="18" fill="#FFFFFF" stroke="#F0E2EA"/>
      <text x="54" y="603" class="section">下一站奖励</text>
      <g transform="translate(54 624)">
        <rect width="84" height="40" rx="14" fill="#FDF6FA"/>
        <text x="14" y="25" font-size="13" font-weight="800" fill="#C24A73">灯塔徽章</text>
      </g>
      <g transform="translate(148 624)">
        <rect width="74" height="40" rx="14" fill="#EDE8FA"/>
        <text x="15" y="25" font-size="13" font-weight="800" fill="#6A57BF">+80 XP</text>
      </g>
      <g transform="translate(232 624)">
        <rect width="84" height="40" rx="14" fill="#FCE7D2"/>
        <text x="14" y="25" font-size="13" font-weight="800" fill="#C56521">新剧情</text>
      </g>
    </g>

    <g filter="url(#softShadow)">
      <rect x="34" y="704" width="322" height="70" rx="18" fill="#2A1B24"/>
      <text x="54" y="733" font-size="15" font-weight="900" fill="#FFFFFF">章节进度</text>
      <text x="54" y="756" font-size="12" font-weight="700" fill="#FFFFFF" opacity="0.75">星河海岸  ·  第 3 / 9 站</text>
      <rect x="218" y="731" width="94" height="10" rx="5" fill="#FFFFFF" opacity="0.16"/>
      <rect x="218" y="731" width="42" height="10" rx="5" fill="#F6C84C"/>
    </g>

    <g transform="translate(60 797)">
      <circle cx="0" cy="0" r="4" fill="#B7A6B0"/>
      <circle cx="72" cy="0" r="4" fill="#E86A92"/>
      <circle cx="144" cy="0" r="4" fill="#B7A6B0"/>
      <circle cx="216" cy="0" r="4" fill="#B7A6B0"/>
      <circle cx="288" cy="0" r="4" fill="#B7A6B0"/>
    </g>
  </g>
</svg>
